<svg xmlns="http://www.w3.org/2000/svg" viewBox="0 0 616.32 269.51"><defs><style>.cls-1{fill:#c28314;fill-rule:evenodd;}</style></defs><g id="Camada_2" data-name="Camada 2"><g id="Camada_1-2" data-name="Camada 1"><path d="M6.88,145.41c0-5.57,0-20.5-.82-25.24A12.72,12.72,0,0,0,0,111.81v-.49H34.75c17.7,0,34.26-.82,49,9.5s22.12,27.21,22.12,44.91c0,15.89-6.72,32.28-19.34,42.28-14.91,12-31.3,11.14-49.65,11.14H0v-.5c8-5.08,6.88-14.42,6.88-22.94ZM37.2,201.63a27.41,27.41,0,0,0,8.85,1.31c10.33,0,16.88-3.11,22.29-12.13,4.43-7.53,5.73-16.39,5.73-25.07,0-16.88-5.89-37-26-37a60.61,60.61,0,0,0-10.83,1.16Z"/><path d="M139.15,186.55l-3.94,11.15c-1.16,3.28-3,8.36-3,11.8,0,4.58,3,6.72,5.9,9.18v.48H104.57v-.51c6.23-5.74,8.35-10.49,11.3-18.85l22.62-65.39c1-3.28,3.6-9.67,3.6-13.11,0-4.42-2.94-7.37-6.22-9.51v-.48H176l31,84.4c3.94,10.48,4.76,14.25,14.09,22.94v.49h-49.5v-.49c3.77-2.46,6.72-4.76,6.72-10a13.78,13.78,0,0,0-1.31-6.23l-5.41-15.9ZM154.88,139h-.16l-10.83,32.28h22.28Z"/><path d="M264.88,195.72c0,8.51-1.16,17.86,6.89,22.95v.48H227.69v-.5c8-5.09,6.88-14.43,6.88-22.94v-61c0-8.5,1.16-17.85-6.88-22.94v-.49H276.2c8,0,14.58-.16,21.95,3.77,9.67,5.24,14.59,13.92,14.59,24.91,0,12.29-8.68,21.31-19.5,25.89l19.5,32.62c4.43,7.37,9.18,14.25,15.73,19.66l-22.61,1.47c-11,.66-16.22-.81-22-11l-19-35.72Zm0-68.5v37a21.24,21.24,0,0,0,17.71-20.81c0-5.24-2.13-10.82-6.58-13.92-2.78-2-6.23-2.29-9.5-2.29Z"/><path d="M372.28,201c5.41,2.13,11.47,2.46,17.2,2.46,9.18,0,17.7-1.47,23.93-9h.82l-6.57,24.75H335.07v-.51c8-5.09,6.89-14.26,6.89-22.78V134.59c0-8.51,1.16-17.86-6.89-22.78v-.49H400.3c2.46,0,5.08,0,6.88-.82h.49l6.58,25.7h-.51c-4.42-7.71-20.33-8.82-28.36-8.82h-13.1v26.55h28.51a16.3,16.3,0,0,0,6.06-.82h.82v22.94h-.82c-2.29-6.57-23.1-5.9-29.17-5.9h-5.41Z"/><path d="M458,200.64c5.25,2.45,11.31,2.78,17.21,2.78,9,0,16.06-1.8,23.27-7.21l-6.23,22.95H420.83v-.51c8-5.08,6.88-14.26,6.88-22.78V134.75c0-8.5,1.16-17.85-6.88-22.94v-.49h44.09v.49c-8,5.09-6.89,14.42-6.89,23.11Z"/><path d="M534.4,186.55l-3.94,11.15c-1.16,3.28-3,8.36-3,11.8,0,4.58,3,6.72,5.9,9.18v.48h-33.6v-.51c6.24-5.74,8.37-10.49,11.31-18.85l22.63-65.37c1-3.28,3.6-9.67,3.6-13.11,0-4.42-3-7.38-6.23-9.51v-.49h40.14l31,84.4c3.93,10.49,4.75,14.26,14.09,22.95v.48h-49.5v-.5c3.77-2.46,6.72-4.76,6.72-10a13.78,13.78,0,0,0-1.31-6.23l-5.41-15.9ZM550.13,139H550l-10.82,32.28h22.28Z"/><polygon class="cls-1" points="308.16 0 315.34 25.07 342.64 25.06 321.19 41.46 329.47 65.6 307.42 51.23 286.85 65.6 294.28 41.86 273.67 25.06 299.71 25.04 308.16 0"/><polygon class="cls-1" points="253.42 27.07 257.63 41.79 273.67 41.78 261.07 51.42 265.94 65.6 252.99 57.16 240.9 65.6 245.26 51.65 233.16 41.78 248.45 41.77 253.42 27.07"/><polygon class="cls-1" points="362.9 27.07 367.12 41.79 383.16 41.78 370.56 51.42 375.42 65.6 362.47 57.16 350.38 65.6 354.75 51.65 342.64 41.78 357.94 41.77 362.9 27.07"/><path d="M179.35,263.29a9.19,9.19,0,0,1-4.59-1.14,8.31,8.31,0,0,1-3.18-3.13,9.64,9.64,0,0,1,0-9.13,8.24,8.24,0,0,1,3.18-3.1,9.4,9.4,0,0,1,4.59-1.12,9,9,0,0,1,4,.86,6.44,6.44,0,0,1,2.8,2.57l-1.75,1.18a5.52,5.52,0,0,0-2.2-1.94,6.54,6.54,0,0,0-2.86-.62,6.74,6.74,0,0,0-3.33.83,6.1,6.1,0,0,0-2.34,2.36,7.86,7.86,0,0,0,0,7.11,6.07,6.07,0,0,0,2.34,2.35,7,7,0,0,0,6.19.22,5.59,5.59,0,0,0,2.2-1.91l1.75,1.18a6.58,6.58,0,0,1-2.8,2.55A8.78,8.78,0,0,1,179.35,263.29Z"/><path d="M202.56,245.67a8.09,8.09,0,0,1,3.7.81,5.85,5.85,0,0,1,2.5,2.45,8.58,8.58,0,0,1,.91,4.15v10h-2.34v-9.81a5.68,5.68,0,0,0-1.37-4.13,5.12,5.12,0,0,0-3.83-1.4,6.67,6.67,0,0,0-3.21.74,5.18,5.18,0,0,0-2.11,2.14,7.18,7.18,0,0,0-.74,3.38v9.08h-2.34V238.7h2.34v11.88l-.46-.89a6.37,6.37,0,0,1,2.63-2.95A8.39,8.39,0,0,1,202.56,245.67Z"/><path d="M226.32,263.29a8.87,8.87,0,0,1-4.51-1.14,8.32,8.32,0,0,1-3.12-3.14,9,9,0,0,1-1.16-4.55,8.87,8.87,0,0,1,1.16-4.57,8.29,8.29,0,0,1,3.12-3.1,9.67,9.67,0,0,1,9.07,0A8.36,8.36,0,0,1,234,249.9a9.69,9.69,0,0,1,0,9.12,8.21,8.21,0,0,1-3.14,3.13A9.07,9.07,0,0,1,226.32,263.29Zm0-2.08a6.54,6.54,0,0,0,3.33-.84,6.07,6.07,0,0,0,2.29-2.37,7.9,7.9,0,0,0,0-7.09,6.12,6.12,0,0,0-2.29-2.36,6.94,6.94,0,0,0-6.58,0,6.16,6.16,0,0,0-2.31,2.36,7.74,7.74,0,0,0,0,7.09,6.14,6.14,0,0,0,2.29,2.37A6.32,6.32,0,0,0,226.32,261.21Z"/><path d="M243.21,269.51V245.84h2.24V251l-.23,3.46.33,3.49v11.52Zm8.92-6.22a8,8,0,0,1-4-1,7.57,7.57,0,0,1-2.88-3,11.3,11.3,0,0,1,0-9.58,7.34,7.34,0,0,1,2.86-3,8.18,8.18,0,0,1,4.08-1,8.83,8.83,0,0,1,4.43,1.11,7.89,7.89,0,0,1,3.08,3.09,10,10,0,0,1,0,9.2,8.12,8.12,0,0,1-3.08,3.1A8.84,8.84,0,0,1,252.13,263.29Zm-.16-2.08a6.44,6.44,0,0,0,3.29-.84,6.1,6.1,0,0,0,2.3-2.37,7,7,0,0,0,.86-3.54,7,7,0,0,0-.86-3.52,6.24,6.24,0,0,0-2.3-2.37,6.35,6.35,0,0,0-3.29-.85,6.45,6.45,0,0,0-3.31.85,6.1,6.1,0,0,0-2.3,2.37,7.16,7.16,0,0,0-.84,3.52,7.24,7.24,0,0,0,.84,3.54,6,6,0,0,0,2.3,2.37A6.54,6.54,0,0,0,252,261.21Z"/><path d="M268.82,269.51V245.84h2.24V251l-.23,3.46.33,3.49v11.52Zm8.92-6.22a8,8,0,0,1-4.05-1,7.57,7.57,0,0,1-2.88-3,9.89,9.89,0,0,1-1.07-4.79,10.06,10.06,0,0,1,1.06-4.79,7.34,7.34,0,0,1,2.86-3,8.18,8.18,0,0,1,4.08-1,8.8,8.8,0,0,1,4.43,1.11,7.89,7.89,0,0,1,3.08,3.09,10,10,0,0,1,0,9.2,8.12,8.12,0,0,1-3.08,3.1A8.81,8.81,0,0,1,277.74,263.29Zm-.16-2.08a6.42,6.42,0,0,0,3.29-.84,6.19,6.19,0,0,0,2.31-2.37,7.13,7.13,0,0,0,.85-3.54,7.06,7.06,0,0,0-.85-3.52,6.23,6.23,0,0,0-5.6-3.22,6.45,6.45,0,0,0-3.31.85,6.1,6.1,0,0,0-2.3,2.37,7.16,7.16,0,0,0-.84,3.52A7.24,7.24,0,0,0,272,258a6,6,0,0,0,2.3,2.37A6.54,6.54,0,0,0,277.58,261.21Z"/><path d="M313.69,263.29a9.56,9.56,0,0,1-4.74-1.14,8.27,8.27,0,0,1-3.19-3.13,8.88,8.88,0,0,1-1.15-4.56,9.11,9.11,0,0,1,1.1-4.54,8.08,8.08,0,0,1,3-3.11,8.31,8.31,0,0,1,4.33-1.14,8.43,8.43,0,0,1,4.33,1.11,7.76,7.76,0,0,1,3,3.09,9.38,9.38,0,0,1,1.09,4.59c0,.11,0,.23,0,.35s0,.25,0,.38H306.38v-1.75h13.8l-.93.69a6.79,6.79,0,0,0-.8-3.34,5.93,5.93,0,0,0-2.19-2.28,6.12,6.12,0,0,0-3.19-.83,6.26,6.26,0,0,0-3.2.83,5.61,5.61,0,0,0-2.2,2.3,7.07,7.07,0,0,0-.79,3.39v.36a6.81,6.81,0,0,0,.87,3.48,6.09,6.09,0,0,0,2.44,2.33,7.41,7.41,0,0,0,3.57.84,7.55,7.55,0,0,0,2.94-.56,6.1,6.1,0,0,0,2.36-1.71l1.31,1.52a7.27,7.27,0,0,1-2.88,2.1A9.61,9.61,0,0,1,313.69,263.29Z"/><path d="M326.4,263.12l7.31-9.48,0,1.15-6.94-8.95h2.63l5.7,7.41-1,0,5.69-7.37h2.57l-7,9,0-1.25,7.38,9.48h-2.67l-6-7.9.92.13L329,263.12Z"/><path d="M349.9,269.51V245.84h2.24V251l-.23,3.46.33,3.49v11.52Zm8.92-6.22a8,8,0,0,1-4-1,7.53,7.53,0,0,1-2.89-3,9.89,9.89,0,0,1-1.07-4.79,10.06,10.06,0,0,1,1.06-4.79,7.34,7.34,0,0,1,2.86-3,8.18,8.18,0,0,1,4.08-1,8.8,8.8,0,0,1,4.43,1.11,7.89,7.89,0,0,1,3.08,3.09,10,10,0,0,1,0,9.2,8.12,8.12,0,0,1-3.08,3.1A8.81,8.81,0,0,1,358.82,263.29Zm-.16-2.08a6.42,6.42,0,0,0,3.29-.84,6.19,6.19,0,0,0,2.31-2.37,7.13,7.13,0,0,0,.85-3.54,7.06,7.06,0,0,0-.85-3.52,6.23,6.23,0,0,0-5.6-3.22,6.45,6.45,0,0,0-3.31.85,6.1,6.1,0,0,0-2.3,2.37,7.16,7.16,0,0,0-.84,3.52,7.24,7.24,0,0,0,.84,3.54,6,6,0,0,0,2.3,2.37A6.54,6.54,0,0,0,358.66,261.21Z"/><path d="M375.51,263.12V245.84h2.24v4.71l-.23-.83a5.71,5.71,0,0,1,2.44-3,8,8,0,0,1,4.24-1V248l-.26,0-.26,0a5.56,5.56,0,0,0-4.28,1.67,6.66,6.66,0,0,0-1.55,4.72v8.82Z"/><path d="M398.92,263.29a9.56,9.56,0,0,1-4.74-1.14A8.2,8.2,0,0,1,391,259a8.89,8.89,0,0,1-1.16-4.56,9.12,9.12,0,0,1,1.11-4.54,8.13,8.13,0,0,1,3-3.11,8.9,8.9,0,0,1,8.66,0,7.78,7.78,0,0,1,3,3.09,9.38,9.38,0,0,1,1.09,4.59c0,.11,0,.23,0,.35s0,.25,0,.38H391.61v-1.75H405.4l-.92.69a6.9,6.9,0,0,0-.8-3.34,5.93,5.93,0,0,0-2.19-2.28,6.13,6.13,0,0,0-3.2-.83,6.22,6.22,0,0,0-3.19.83,5.61,5.61,0,0,0-2.2,2.3,7.07,7.07,0,0,0-.79,3.39v.36A6.81,6.81,0,0,0,393,258a6.13,6.13,0,0,0,2.43,2.33,8,8,0,0,0,6.52.28,6.1,6.1,0,0,0,2.36-1.71l1.31,1.52a7.42,7.42,0,0,1-2.88,2.1A9.61,9.61,0,0,1,398.92,263.29Z"/><path d="M419.4,263.29a13.41,13.41,0,0,1-4-.61,8.75,8.75,0,0,1-3-1.53l1-1.85a10,10,0,0,0,2.7,1.37,10.51,10.51,0,0,0,3.46.58,6.26,6.26,0,0,0,3.56-.78,2.4,2.4,0,0,0,1.08-2.06,1.88,1.88,0,0,0-.61-1.49,3.93,3.93,0,0,0-1.59-.83,21.21,21.21,0,0,0-2.21-.47c-.81-.14-1.62-.29-2.42-.46a9.14,9.14,0,0,1-2.19-.78,4.23,4.23,0,0,1-1.59-1.4,4.08,4.08,0,0,1-.61-2.37,4.25,4.25,0,0,1,.79-2.53,5.1,5.1,0,0,1,2.32-1.76,9.58,9.58,0,0,1,3.73-.65,12.94,12.94,0,0,1,3.36.45,9.24,9.24,0,0,1,2.77,1.17l-1,1.87a8.11,8.11,0,0,0-2.47-1.13,10.41,10.41,0,0,0-2.64-.35,5.85,5.85,0,0,0-3.44.81,2.46,2.46,0,0,0-1.1,2.06,2,2,0,0,0,.61,1.54,4.13,4.13,0,0,0,1.61.88,19.54,19.54,0,0,0,2.21.51c.8.13,1.6.29,2.4.47a11,11,0,0,1,2.21.76,4.09,4.09,0,0,1,1.61,1.35,3.88,3.88,0,0,1,.61,2.29,4.21,4.21,0,0,1-.84,2.62,5.42,5.42,0,0,1-2.44,1.71A11,11,0,0,1,419.4,263.29Z"/><path d="M438.75,263.29a13.46,13.46,0,0,1-4.05-.61,8.79,8.79,0,0,1-3-1.53l1.05-1.85a9.72,9.72,0,0,0,2.7,1.37,10.51,10.51,0,0,0,3.46.58,6.22,6.22,0,0,0,3.55-.78,2.39,2.39,0,0,0,1.09-2.06,1.88,1.88,0,0,0-.61-1.49,4,4,0,0,0-1.6-.83,21,21,0,0,0-2.2-.47c-.82-.14-1.62-.29-2.42-.46a9.14,9.14,0,0,1-2.19-.78,4.34,4.34,0,0,1-1.6-1.4,4.16,4.16,0,0,1-.61-2.37,4.32,4.32,0,0,1,.79-2.53,5.15,5.15,0,0,1,2.32-1.76,9.64,9.64,0,0,1,3.74-.65,12.94,12.94,0,0,1,3.36.45,9.06,9.06,0,0,1,2.76,1.17l-1,1.87a8,8,0,0,0-2.47-1.13,10.28,10.28,0,0,0-2.63-.35,5.83,5.83,0,0,0-3.44.81,2.44,2.44,0,0,0-1.1,2.06,2,2,0,0,0,.61,1.54,4.06,4.06,0,0,0,1.61.88,19.35,19.35,0,0,0,2.2.51c.81.13,1.61.29,2.41.47a11,11,0,0,1,2.2.76,4.12,4.12,0,0,1,1.62,1.35,4,4,0,0,1,.61,2.29,4.21,4.21,0,0,1-.84,2.62,5.48,5.48,0,0,1-2.44,1.71A11,11,0,0,1,438.75,263.29Z"/></g></g></svg>